<svg width="977" height="758" viewBox="0 0 977 758" fill="none" xmlns="http://www.w3.org/2000/svg">
<path opacity="0.5" d="M208.735 56.6014C130.092 122.231 117.906 246.332 64.644 337.886C46.1032 369.743 22.1459 398.255 9.64645 433.596C-19.0502 514.491 20.4446 606.251 73.3068 670.501C98.514 701.151 127.957 729.231 163.581 742.15C190.975 752.085 220.349 752.499 249.184 752.758L754.37 757.932C810.774 758.501 873.445 756.449 913.998 713.087C941.949 683.23 953.302 639.627 962.937 598.007C974.777 546.865 985.506 491.326 967.086 442.617C946.046 386.888 892.836 355.306 859.782 307.218C806.139 229.308 807.371 111.468 739.058 49.2709C707.167 20.2421 665.086 8.85827 624.081 3.16635C546.775 -7.57931 473.549 12.7046 397.633 9.87592C332.74 7.46116 262.569 11.6697 208.735 56.6014Z" fill="#E7ECFF"/>
</svg>
